<?xml version="1.0" encoding="UTF-8"?>
<svg id="Layer_2" data-name="Layer 2" xmlns="http://www.w3.org/2000/svg" viewBox="0 0 55.51 55.51">
  <g id="Layer_1-2" data-name="Layer 1">
    <g>
      <circle cx="27.75" cy="27.75" r="27.15" style="fill: none; stroke: #0018df; stroke-width: 1.2px;"/>
      <path d="M43.03,32.67l-.08.31c-.12.31-.28.62-.4.93,0,.08-.08.23-.12.31-1.28,2.76-3.67,4.08-7.38,4.74-.2.04-.56.12-.92.16-3.59.43-6.3.5-9.9.19-.12,0-.28-.04-.36-.04-4.99-.54-7.94-2.29-9.5-5.09-.04-.04-.12-.16-.16-.31-.16-.27-.28-.62-.4-.89-.08-.16-.12-.23-.16-.35-.52-1.44-.72-3.11-.72-4.97,0-3.26,1.04-4.55,2.43-6.29-1.08-3.73.44-6.29.44-6.29,0,0,2.27-.47,6.58,2.52,2.31-.97,8.5-1.05,11.45-.19,1.8-1.17,5.11-2.8,6.46-2.33.32.54,1.08,2.18.44,5.79.44.78,2.83,2.49,2.83,7.27-.04,1.75-.24,3.26-.56,4.55h0ZM16.9,31.54c0,4.31,3.11,6.22,7.46,6.57.28.04.56.04.88.08,2.04.04,4.59.08,7.1,0,.56-.04,1.12-.08,1.64-.16,4.15-.58,5.87-2.91,5.87-6.18,0-2.37-1.12-5.48-5.59-5.48-.32,0-2.95.31-5.47.31-2.83,0-5.75-.31-6.18-.31-4.59,0-5.71,3.54-5.71,5.17ZM22.16,29.56c.88,0,1.56,1.01,1.56,2.25s-.68,2.25-1.56,2.25-1.52-1.01-1.52-2.25.64-2.25,1.52-2.25ZM35.05,34.07c-.92,0-1.6-1.01-1.6-2.25s.68-2.25,1.6-2.25,1.56,1.01,1.56,2.25-.68,2.25-1.56,2.25ZM28.43,35.15c-.4,0-.72-.35-.72-.74,0-.35.32-.66.72-.66s.76.31.76.66c0,.39-.36.74-.76.74ZM28.47,37.49c-1.16,0-2.07-.97-2.07-1.55,0-.23.16-.43.4-.43s.4.19.4.43c.04.12.56.78,1.28.78.56,0,1.08-.47,1.08-.78,0-.23.2-.43.4-.43.24,0,.44.19.44.43,0,.7-.8,1.55-1.92,1.55h0Z" style="fill: #0018df; stroke-width: 0px;"/>
    </g>
  </g>
</svg>