<?xml version="1.0" encoding="UTF-8"?>
<svg id="Layer_2" data-name="Layer 2" xmlns="http://www.w3.org/2000/svg" viewBox="0 0 384.59 216.19">
  <defs>
    <style>
      .cls-1 {
        fill: #0500e8;
        stroke-width: 0px;
      }
    </style>
  </defs>
  <g id="Layer_1-2" data-name="Layer 1">
    <g>
      <path class="cls-1" d="M55.97,37.61l3.11-12.14c.39-1.58.42-2.79.07-3.63-.35-.84-1.06-1.26-2.15-1.26s-2.05.42-2.89,1.26-1.46,2.05-1.85,3.63l-1.92,7.7c-.4,1.28-.57,2.39-.52,3.33.05.94.39,1.85,1.04,2.74.64.89,1.63,1.85,2.96,2.89,1.33,1.04,3.28,2.29,5.85,3.78l3.85,2.07c2.37,1.38,4.22,2.89,5.55,4.52,1.33,1.63,2.24,3.58,2.74,5.85.49,2.27.59,4.91.3,7.92-.3,3.01-.99,6.64-2.07,10.88l-.44,2.07c-2.27,8.79-6.39,15.55-12.36,20.29-5.97,4.74-13.35,7.11-22.14,7.11s-14.86-2.34-18.21-7.03c-3.36-4.69-3.9-11.48-1.63-20.36l2.52-10.22h23.69l-3.11,12.14c-.4,1.58-.42,2.79-.07,3.63.34.84,1.06,1.26,2.15,1.26,1.18,0,2.2-.39,3.04-1.18.84-.79,1.46-2.02,1.85-3.7l2.07-8c.3-1.38.47-2.52.52-3.41.05-.89-.22-1.75-.81-2.59-.59-.84-1.53-1.73-2.81-2.67-1.28-.94-3.01-2.1-5.18-3.48l-4.74-2.52c-2.37-1.48-4.22-3.06-5.55-4.74-1.33-1.68-2.22-3.68-2.67-6-.44-2.32-.54-5.01-.3-8.07.25-3.06.91-6.71,2-10.96l.74-2.81c2.07-8.29,5.97-14.68,11.7-19.18C46,2.25,53.16,0,61.75,0s14.83,2.37,18.44,7.11c3.6,4.74,4.32,11.45,2.15,20.14l-2.67,10.37h-23.69Z"/>
      <path class="cls-1" d="M137.42,22.06h-14.22l-20.58,83.07h-23.69l20.58-83.07h-14.21l5.18-20.58h52.12l-5.18,20.58Z"/>
      <path class="cls-1" d="M171.18,1.48l-19.99,79.67c-.2.79-.27,1.51-.22,2.15.05.64.12,1.16.22,1.55.1.4.32.69.67.89.34.2.76.3,1.26.3.59,0,1.13-.1,1.63-.3.49-.2.94-.49,1.33-.89.39-.39.71-.91.96-1.55.25-.64.47-1.36.67-2.15L177.69,1.48h23.69l-19.55,77.74c-.99,4.44-2.52,8.37-4.59,11.77-2.07,3.41-4.57,6.25-7.48,8.51-2.91,2.27-6.22,4.02-9.92,5.26-3.7,1.23-7.72,1.85-12.07,1.85s-7.87-.59-10.88-1.78c-3.01-1.18-5.38-2.91-7.11-5.18-1.73-2.27-2.72-5.13-2.96-8.59-.25-3.45.12-7.4,1.11-11.85L147.48,1.48h23.69Z"/>
      <path class="cls-1" d="M225.37,22.06l-5.18,21.03h13.62l-5.04,20.43h-13.62l-10.37,41.61h-23.54L207.01,1.48h38.06l-5.18,20.58h-14.51Z"/>
      <path class="cls-1" d="M268.32,22.06l-5.18,21.03h13.62l-5.04,20.43h-13.62l-10.37,41.61h-23.54L249.95,1.48h38.06l-5.18,20.58h-14.51Z"/>
      <path class="cls-1" d="M308.92,42.3l-9.87,62.83h-13.82l7.27-39.04h-.9l-12.12,39.04h-13.82l21.72-62.83h21.54ZM280.64,90.5l2.96-12.03h10.5l-2.96,12.03h-10.5Z"/>
      <path class="cls-1" d="M351.37,42.3l-15.62,62.83h-15.08l2.51-38.6h-.81l-6.55,38.6h-13.82l15.62-62.83h15.08l-2.15,38.87h.72l6.28-38.87h13.82Z"/>
      <path class="cls-1" d="M371.21,42.3c2.63,0,4.89.33,6.78.99,1.89.66,3.38,1.65,4.49,2.96,1.11,1.32,1.78,2.95,2.02,4.89.24,1.95.03,4.23-.63,6.87l-7.9,31.5c-.66,2.57-1.59,4.83-2.78,6.78-1.2,1.94-2.66,3.58-4.4,4.89-1.74,1.32-3.72,2.3-5.97,2.96-2.24.66-4.65.99-7.23.99h-16.07l15.62-62.83h16.07ZM356.31,93.11h2.15c.48,0,.91-.06,1.3-.18.39-.12.73-.31,1.03-.58.3-.27.55-.63.76-1.08.21-.45.4-.97.58-1.57l7.9-31.95c.18-.6.28-1.14.31-1.62.03-.48-.03-.84-.18-1.08-.15-.24-.39-.42-.72-.54-.33-.12-.73-.18-1.21-.18h-2.15l-9.78,38.78Z"/>
      <path class="cls-1" d="M52.27,111.06c4.44,0,8.19.54,11.25,1.63,3.06,1.09,5.53,2.69,7.4,4.81,1.87,2.12,3.04,4.81,3.48,8.07.44,3.26.12,7.06-.96,11.4l-13.03,51.98c-1.09,4.25-2.64,8-4.66,11.25-2.02,3.26-4.49,5.95-7.4,8.07-2.91,2.12-6.2,3.73-9.85,4.81-3.65,1.09-7.65,1.63-12,1.63H0l25.77-103.65h26.51ZM28.73,194.13h2.81c.69,0,1.31-.07,1.85-.22.54-.15,1.01-.42,1.41-.81s.74-.91,1.04-1.55c.3-.64.59-1.41.89-2.3l13.03-52.72c.3-.89.47-1.65.52-2.29.05-.64-.05-1.13-.3-1.48-.25-.34-.59-.62-1.04-.81-.44-.2-1.01-.3-1.7-.3h-2.96l-15.55,62.49Z"/>
      <path class="cls-1" d="M103.95,131.64l-4.59,18.36h14.36l-5.03,20.58h-14.36l-5.77,23.54h14.66l-5.18,20.58h-38.2l25.77-103.65h38.06l-5.18,20.58h-14.51Z"/>
      <path class="cls-1" d="M150.59,147.19l3.11-12.14c.39-1.58.42-2.79.07-3.63-.35-.84-1.06-1.26-2.15-1.26s-2.05.42-2.89,1.26c-.84.84-1.46,2.05-1.85,3.63l-1.92,7.7c-.4,1.28-.57,2.39-.52,3.33.05.94.39,1.85,1.04,2.74.64.89,1.63,1.85,2.96,2.89,1.33,1.04,3.28,2.29,5.85,3.78l3.85,2.07c2.37,1.38,4.22,2.89,5.55,4.52,1.33,1.63,2.24,3.58,2.74,5.85.49,2.27.59,4.91.3,7.92-.3,3.01-.99,6.64-2.07,10.88l-.44,2.07c-2.27,8.79-6.39,15.55-12.36,20.29-5.97,4.74-13.35,7.11-22.14,7.11s-14.86-2.34-18.21-7.03c-3.36-4.69-3.9-11.48-1.63-20.36l2.52-10.22h23.69l-3.11,12.14c-.4,1.58-.42,2.79-.07,3.63.34.84,1.06,1.26,2.15,1.26,1.18,0,2.2-.39,3.04-1.18.84-.79,1.46-2.02,1.85-3.7l2.07-8c.3-1.38.47-2.52.52-3.41.05-.89-.22-1.75-.81-2.59-.59-.84-1.53-1.73-2.81-2.67-1.28-.94-3.01-2.1-5.18-3.48l-4.74-2.52c-2.37-1.48-4.22-3.06-5.55-4.74-1.33-1.68-2.22-3.68-2.67-6-.44-2.32-.54-5.01-.3-8.07.25-3.06.91-6.71,2-10.96l.74-2.81c2.07-8.29,5.97-14.68,11.7-19.18,5.72-4.49,12.88-6.74,21.47-6.74s14.83,2.37,18.44,7.11c3.6,4.74,4.32,11.45,2.15,20.14l-2.67,10.37h-23.69Z"/>
      <path class="cls-1" d="M212.79,111.06l-25.77,103.65h-23.54l25.77-103.65h23.54Z"/>
      <path class="cls-1" d="M222.41,190.72c-.2.79-.32,1.48-.37,2.07-.05.59.02,1.11.22,1.56.2.44.47.77.81.96.34.2.76.3,1.26.3.59,0,1.13-.15,1.63-.44.49-.3.99-.69,1.48-1.18s.94-1.13,1.33-1.93c.39-.79.69-1.63.89-2.52l4.29-16.73h-4.29l3.7-15.4h27.99l-14.21,57.31h-16.14l2.37-9.33h-1.63c-1.98,3.46-4.64,6.12-8,8-3.36,1.87-6.86,2.81-10.51,2.81-2.57,0-4.96-.52-7.18-1.55-2.22-1.04-4.02-2.69-5.41-4.96-1.38-2.27-2.27-5.11-2.67-8.51-.4-3.41.05-7.53,1.33-12.37l12.88-51.97c1.09-4.44,2.64-8.37,4.67-11.77,2.02-3.41,4.44-6.24,7.26-8.51,2.81-2.27,6.05-4,9.7-5.18,3.65-1.18,7.65-1.78,11.99-1.78s8.07.62,11.18,1.85c3.11,1.24,5.55,2.99,7.33,5.26,1.78,2.27,2.86,5.11,3.26,8.51.39,3.41.05,7.28-1.04,11.62l-4.15,16.58h-23.69l4.59-18.36c.2-.89.3-1.63.3-2.22s-.1-1.09-.3-1.48c-.2-.39-.47-.69-.81-.89-.35-.2-.81-.3-1.41-.3s-1.11.1-1.56.3c-.44.2-.89.5-1.33.89-.44.4-.81.89-1.11,1.48-.3.59-.54,1.33-.74,2.22l-13.92,55.68Z"/>
      <path class="cls-1" d="M334.65,111.06l-25.77,103.65h-25.77l4.89-62.04h-1.33l-10.22,62.04h-23.54l25.77-103.65h25.62l-4.44,62.49h1.33l9.77-62.49h23.69Z"/>
    </g>
  </g>
</svg>